<svg width="212" height="101" viewBox="0 0 212 101" fill="none" xmlns="http://www.w3.org/2000/svg">
<g clip-path="url(#clip0_110_1239)">
<path fill-rule="evenodd" clip-rule="evenodd" d="M76.5201 93.9151C75.4418 88.612 82.306 87.877 82.9605 92.2654C83.6418 96.8442 77.3114 97.8045 76.5201 93.9151ZM117.008 96.3265C115.562 95.3394 116.088 95.5674 115.726 93.9258L113.44 93.9553L112.55 96.297C111.887 95.267 112.308 97.4263 111.987 94.8297C111.954 94.5696 111.989 93.3705 111.992 93.0272C112.003 91.7638 111.995 90.7767 112.131 89.5106L116.742 89.7386C118.258 93.0916 116.053 90.9269 116.992 94.3979C117.544 96.4418 117.319 95.723 117.013 96.3265H117.008ZM92.3435 96.3748C89.8757 95.2187 92.8102 93.907 88.9181 93.9043C88.8564 94.0009 88.7893 94.0492 88.7678 94.2155L87.88 96.3641C86.7882 95.2401 87.0833 91.4875 87.3891 89.8271C89.2185 89.0573 90.8521 89.3255 92.3622 90.4414C92.7512 93.1103 91.8231 92.4424 91.9894 93.6495C92.212 95.275 93.234 95.1329 92.3408 96.3748H92.3435ZM72.1425 93.5824L69.3018 94.0223C68.9397 94.9665 69.4601 93.8292 69.0953 94.8888L68.0974 95.6237L68.0947 89.5857C74.3742 89.009 72.2873 90.9483 72.1398 93.5798L72.1425 93.5824ZM127.375 96.0905L127.408 89.8191C129.1 89.4864 131.978 88.553 132.134 91.2058C132.26 93.3652 131.689 90.9617 132.099 92.7509C132.252 93.4188 133.395 94.8324 131.914 95.9C130.726 96.7557 128.671 96.3909 127.378 96.0905H127.375ZM137.654 91.238C138.429 92.8153 137.874 91.8443 139.76 92.5309C140.809 92.9145 141.603 93.2445 141.375 94.6876C141.082 96.5357 137.963 97.3887 136.442 95.2509C137.933 94.4274 137.751 95.7739 140.259 94.9746C139.747 93.4644 140.932 94.2423 138.843 93.4322C137.66 92.9735 137.925 93.3303 136.705 92.5712C136.445 90.7874 136.495 89.8486 138.041 89.4999C139.792 89.1029 140.999 89.4221 140.959 91.0851C139.425 90.6935 139.065 90.0149 137.652 91.2407L137.654 91.238ZM100.179 92.5765C102.317 95.6935 102.748 95.157 101.713 96.3668C99.1245 94.2396 100.729 94.422 98.6766 93.4376C97.8531 95.0953 98.6632 95.1892 97.5044 96.3668C96.7453 95.5245 96.9384 94.7841 96.9384 93.0245C96.9384 91.5358 96.7157 90.6721 97.389 89.5589C98.2528 90.0417 97.8128 89.4006 98.124 90.4333C98.1723 90.5969 98.2688 91.9757 98.3413 92.421C99.4571 91.3346 100.273 89.7252 102.18 89.5696C101.906 91.3051 101.088 91.1388 100.176 92.5765H100.179ZM55.9167 87.1098L55.8926 99.4595C56.9548 101.233 58.6313 100.742 61.2734 100.723L145.095 100.718C151.619 100.718 155.455 101.774 156.157 98.5958L156.16 87.8985C155.455 85.3663 154.336 85.7311 151.348 85.7606L60.8255 85.766C58.1887 85.7445 56.9333 85.3502 55.9194 87.1152L55.9167 87.1098Z" fill="#3C3B3B"/>
<path fill-rule="evenodd" clip-rule="evenodd" d="M55.8984 99.4596L55.9226 87.1099C54.9676 88.4189 55.2761 90.3073 55.3003 92.193C46.604 92.2547 37.8809 92.1903 29.1792 92.1903C-1.14777 92.1903 2.46003 94.4998 2.46003 83.2151V36.8474C2.46003 33.1645 1.53998 21.3352 3.29694 19.4495C5.44552 17.9527 48.1142 18.8486 54.5894 18.8486H196.815C211.833 18.8486 209.465 15.1416 209.465 37.2927C209.465 46.2062 210.009 89.1297 208.971 91.7853C204.94 93.0621 164.615 92.1635 156.63 92.2037C156.592 90.6613 156.898 88.8615 156.16 87.8985L156.158 98.5958C156.893 97.6409 156.59 95.9188 156.625 94.3872L201.718 94.3952C207.15 94.3979 211.477 95.4816 211.584 89.4865C211.935 69.7119 211.56 49.5351 211.56 29.715C211.56 25.0422 212.735 18.2424 209.087 16.9951C206.316 16.0482 35 16.6518 15.7995 16.6518C-0.745412 16.6518 0.367776 14.2913 0.367776 30.6082C0.367776 40.5652 0.367776 50.5222 0.367776 60.4792C0.367776 96.171 -3.122 94.3952 11.3414 94.3952L55.2734 94.3872C55.2734 95.1678 55.1956 96.3373 55.2412 97.0588L55.8931 99.4596H55.8984Z" fill="#3C3B3B"/>
<path fill-rule="evenodd" clip-rule="evenodd" d="M80.2008 38.3656C87.2849 37.9203 87.4834 38.9423 87.4808 45.7744C87.4754 52.0002 86.6948 53.3601 80.1149 52.7888L80.2008 38.3656ZM90.4421 55.903C93.4142 53.6847 94.75 52.2684 95.0987 47.5474C96.448 29.3823 88.8005 31.1822 72.4111 31.2788L72.5238 79.5455L80.1015 79.5509L80.1203 60.0554C91.8745 58.7008 85.3187 68.9984 88.2077 79.5214L95.9276 79.5268C93.492 67.2951 98.3498 61.3644 90.4421 55.9003V55.903Z" fill="#3C3B3B"/>
<path fill-rule="evenodd" clip-rule="evenodd" d="M50.7326 70.2859C50.247 68.2339 49.665 41.3752 51.4407 39.0523C53.2513 36.6811 57.1837 37.4616 57.983 40.5652C58.4712 42.4589 59.0265 69.3283 57.3822 71.7318C55.7486 74.1191 51.4702 73.4163 50.7326 70.2859ZM52.0201 30.9327C39.9789 33.0599 42.8839 45.1279 42.8839 58.2474C42.8839 63.3466 42.106 70.7661 44.2707 74.8058C46.3469 78.6791 50.9257 80.9565 57.1032 79.8808C68.6214 77.8771 65.8531 63.977 65.8531 52.4508C65.8531 47.145 66.5318 40.1655 64.4181 35.9407C62.5189 32.1478 57.5994 29.9456 52.0174 30.9327H52.0201Z" fill="#3C3B3B"/>
<path fill-rule="evenodd" clip-rule="evenodd" d="M126.842 79.5536C126.49 77.3487 118.744 58.352 117.29 54.8247C116.169 52.1048 117.327 51.0372 118.556 48.6552L126.877 31.268L119.278 31.3646L109.549 51.6166L109.54 31.2761H101.834L101.947 79.5482L109.401 79.5455C110.654 69.6234 107.446 67.9845 111.66 60.9486L112.378 61.9786C113.371 63.8456 117.494 76.2569 119.213 79.5482L126.842 79.5536Z" fill="#3C3B3B"/>
<path fill-rule="evenodd" clip-rule="evenodd" d="M23.5702 38.371C31.4698 37.8586 30.6114 39.3769 30.6195 46.6569C30.6275 53.5881 31.0138 54.7872 23.5165 54.417L23.5702 38.371ZM15.7993 79.5536L23.3663 79.5509L23.5192 61.5575C29.8925 61.1068 38.3152 61.8633 38.3179 49.7765C38.3179 30.7423 36.3249 31.2358 15.7939 31.2788L15.802 79.5536H15.7993Z" fill="#3C3B3B"/>
<path fill-rule="evenodd" clip-rule="evenodd" d="M185.225 80.1035C192.022 80.1035 195.707 76.7773 196.555 70.5596C198.577 55.7072 183.806 52.7888 182.094 44.3795C181.365 40.7905 182.167 37.7272 185.675 37.7433C189.404 37.7621 189.35 40.871 189.334 44.3715L196.59 44.4385C196.609 35.2621 193.433 29.7391 183.572 30.7986C175.914 31.6194 172.687 38.9477 174.648 46.9788C176.518 54.6262 182.725 57.2925 186.238 61.697C194.881 72.5231 181.225 77.8825 181.225 68.0569V64.9266H173.964C173.964 72.5767 174.656 80.1062 185.227 80.1062L185.225 80.1035Z" fill="#3C3B3B"/>
<path fill-rule="evenodd" clip-rule="evenodd" d="M146.705 79.4651C147.045 74.736 146.589 69.669 146.772 64.9132C146.957 60.1439 154.744 39.68 156.233 31.2815L148.947 31.2975L143.625 52.2872C141.906 50.4605 137.971 33.0733 137.644 31.2761L129.626 31.2734L136.166 53.792C141.222 70.4898 138.21 63.6283 139.116 79.5107L146.699 79.4624L146.705 79.4651Z" fill="#3C3B3B"/>
<path fill-rule="evenodd" clip-rule="evenodd" d="M161.032 38.1859C161.139 38.2503 161.327 38.1618 161.391 38.3093C161.453 38.4568 161.665 38.4032 161.751 38.43L163.736 39.0765L161.898 45.5034L165.259 45.5383C167.429 37.7433 168.438 43.0464 168.387 31.2815L161.032 31.2761L161.026 38.1832L161.032 38.1859Z" fill="#3C3B3B"/>
<path fill-rule="evenodd" clip-rule="evenodd" d="M128.596 95.3233L128.591 93.3625C131.225 93.3625 131.024 92.8233 131.338 94.9961L128.596 95.326V95.3233ZM127.379 96.0932C128.674 96.3936 130.726 96.7584 131.915 95.9027C133.398 94.8351 132.253 93.4215 132.1 92.7536C131.689 90.9645 132.261 93.3679 132.135 91.2085C131.979 88.5557 129.101 89.4891 127.408 89.8218L127.376 96.0932H127.379Z" fill="#3C3B3B"/>
<path fill-rule="evenodd" clip-rule="evenodd" d="M108.384 8.16738C108.068 4.78222 107.926 5.76933 109.784 3.79778C106.375 1.85842 108.781 4.91634 105.978 0.895447C103.518 4.72589 104.283 2.50219 102.362 3.8568C104.554 5.9571 103.647 5.10679 103.695 8.1647C106.512 7.06492 105.42 6.84765 108.387 8.17007L108.384 8.16738Z" fill="#3C3B3B"/>
<path fill-rule="evenodd" clip-rule="evenodd" d="M123.99 8.16202C123.639 4.81709 123.532 5.72642 125.388 3.80315C122.048 1.87452 124.353 4.90829 121.579 0.895447C121.12 1.61701 120.831 2.49683 120.131 2.96625L118.258 3.71463C118.213 3.62343 118.054 3.79242 117.966 3.8568C120.093 5.94369 119.272 4.7232 119.294 8.1647C122.174 7.0381 120.978 6.89057 123.99 8.16202Z" fill="#3C3B3B"/>
<path fill-rule="evenodd" clip-rule="evenodd" d="M139.594 8.15666C139.27 4.72857 139.122 5.79884 140.981 3.79779C137.928 2.0301 140.56 5.54133 137.177 0.898132C135.6 3.37934 134.012 3.99092 133.865 3.71463C133.816 3.62343 133.661 3.7951 133.572 3.8568C135.748 5.98661 134.871 4.66688 134.903 8.1647C137.636 6.79669 136.864 6.963 139.597 8.15666H139.594Z" fill="#3C3B3B"/>
<path fill-rule="evenodd" clip-rule="evenodd" d="M92.7566 8.03326C92.3757 4.80367 92.6144 5.48768 94.1675 3.79778C90.8199 1.83964 93.1885 4.93242 90.372 0.890076C89.9401 1.58481 89.5967 2.52096 88.9369 2.96356L86.7588 3.85411C88.9181 5.93295 88.0678 5.09873 88.0919 8.15933C90.9299 6.7323 89.7523 7.07028 92.7593 8.03326H92.7566Z" fill="#3C3B3B"/>
<path fill-rule="evenodd" clip-rule="evenodd" d="M77.1777 8.15664C76.8961 4.69369 76.6493 5.86857 78.5538 3.80314C77.3682 3.09767 77.057 3.63683 76.0565 2.86967C75.4824 2.42976 75.1954 1.49093 74.7582 0.88739C73.3285 3.20229 74.0715 2.70336 72.0678 3.46516L71.1504 3.8541C73.2936 5.93563 72.4755 5.09068 72.4782 8.17006C75.2625 6.77522 74.3639 6.96835 77.175 8.15664H77.1777Z" fill="#3C3B3B"/>
<path fill-rule="evenodd" clip-rule="evenodd" d="M80.6464 95.2402C78.7044 95.1677 77.5376 94.7949 77.6931 92.59C77.8326 90.6238 79.0021 90.538 80.9603 90.7847C82.0574 92.7643 82.2076 93.0943 80.6464 95.2402ZM76.5209 93.9178C77.3122 97.8072 83.6427 96.8469 82.9613 92.2681C82.3068 87.8797 75.4426 88.6147 76.5209 93.9178Z" fill="#3C3B3B"/>
<path fill-rule="evenodd" clip-rule="evenodd" d="M91.268 91.686C90.5035 93.3062 90.8656 92.7911 88.4676 92.7992L88.4649 91.2407L88.4676 90.5782C90.8174 90.5782 90.5035 90.0819 91.268 91.686ZM92.3463 96.3748C93.2422 95.1329 92.2176 95.275 91.9949 93.6495C91.8313 92.4424 92.7594 93.1103 92.3678 90.4414C90.8576 89.3255 89.224 89.0573 87.3946 89.8271C87.0862 91.4875 86.7938 95.2401 87.8855 96.3641L88.7734 94.2155C88.7922 94.0465 88.8592 94.0009 88.9236 93.9043C92.8131 93.907 89.8812 95.2187 92.349 96.3748H92.3463Z" fill="#3C3B3B"/>
<path fill-rule="evenodd" clip-rule="evenodd" d="M113.218 91.686C113.47 91.1146 112.738 89.752 115.908 90.9966L115.951 92.37C112.601 93.7353 113.542 92.0937 113.221 91.686H113.218ZM117.008 96.3265C117.317 95.723 117.539 96.4419 116.987 94.3979C116.048 90.9269 118.255 93.0942 116.737 89.7386L112.126 89.5106C111.992 90.774 111.997 91.7638 111.987 93.0272C111.984 93.3705 111.949 94.5696 111.981 94.8297C112.306 97.4263 111.885 95.2697 112.545 96.297L113.435 93.9553L115.721 93.9258C116.083 95.5674 115.557 95.3394 117.003 96.3265H117.008Z" fill="#3C3B3B"/>
<path fill-rule="evenodd" clip-rule="evenodd" d="M100.182 92.5792C101.094 91.1388 101.912 91.3078 102.186 89.5723C100.279 89.7279 99.4632 91.3346 98.3473 92.4237C98.2749 91.9784 98.1784 90.5996 98.1301 90.436C97.8162 89.4033 98.2588 90.0471 97.3951 89.5616C96.7218 90.6747 96.9445 91.5385 96.9445 93.0272C96.9418 94.7868 96.7486 95.5299 97.5104 96.3694C98.6665 95.1892 97.8592 95.098 98.6826 93.4403C100.735 94.4247 99.1306 94.2423 101.719 96.3694C102.754 95.1597 102.323 95.6988 100.185 92.5792H100.182Z" fill="#3C3B3B"/>
<path fill-rule="evenodd" clip-rule="evenodd" d="M137.657 91.2407C139.073 90.0149 139.43 90.6935 140.964 91.0852C141.005 89.4248 139.798 89.1029 138.046 89.4999C136.498 89.8513 136.45 90.7901 136.71 92.5712C137.931 93.3303 137.665 92.9735 138.848 93.4322C140.938 94.2423 139.752 93.4644 140.264 94.9746C137.756 95.774 137.939 94.4274 136.447 95.2509C137.971 97.3887 141.088 96.5357 141.38 94.6876C141.608 93.2445 140.814 92.9145 139.765 92.5309C137.88 91.8416 138.435 92.8153 137.66 91.238L137.657 91.2407Z" fill="#3C3B3B"/>
<path fill-rule="evenodd" clip-rule="evenodd" d="M80.6458 95.2402C82.207 93.0916 82.0595 92.7643 80.9597 90.7847C79.0016 90.5379 77.832 90.6238 77.6926 92.59C77.537 94.7949 78.7038 95.1677 80.6458 95.2402Z" fill="#3C3B3B"/>
<path fill-rule="evenodd" clip-rule="evenodd" d="M71.4428 92.1313C70.1714 93.1613 70.8554 92.7214 69.0877 92.7965V90.5782C70.8312 90.656 70.1607 90.2188 71.467 91.2408L71.4428 92.134V92.1313ZM72.1456 93.5825C72.2931 90.9511 74.38 89.0117 68.1006 89.5884L68.1033 95.6264L69.1011 94.8915C69.4659 93.8293 68.9455 94.9666 69.3077 94.0251L72.1483 93.5851L72.1456 93.5825Z" fill="#3C3B3B"/>
<path fill-rule="evenodd" clip-rule="evenodd" d="M88.4629 91.2407L88.4656 92.7992C90.8636 92.7911 90.5015 93.3062 91.266 91.686C90.5015 90.0819 90.8127 90.5782 88.4656 90.5782L88.4629 91.2407Z" fill="#3C3B3B"/>
<path fill-rule="evenodd" clip-rule="evenodd" d="M115.908 90.9966C112.738 89.752 113.473 91.1173 113.218 91.686C113.542 92.0937 112.598 93.7353 115.948 92.37L115.906 90.9966H115.908Z" fill="#3C3B3B"/>
<path fill-rule="evenodd" clip-rule="evenodd" d="M131.338 94.9934C131.026 92.8207 131.225 93.3625 128.591 93.3598L128.596 95.3206L131.338 94.9907V94.9934Z" fill="#3C3B3B"/>
<path fill-rule="evenodd" clip-rule="evenodd" d="M69.0879 92.7965C70.8529 92.7241 70.1689 93.1613 71.443 92.1313L71.4672 91.238C70.1608 90.2134 70.8314 90.6533 69.0879 90.5755V92.7938V92.7965Z" fill="#3C3B3B"/>
</g>
<defs>
<clipPath id="clip0_110_1239">
<rect width="211.742" height="100" fill="white" transform="translate(0 0.886993)"/>
</clipPath>
</defs>
</svg>
