<svg width="51" height="50" viewBox="0 0 51 50" fill="none" xmlns="http://www.w3.org/2000/svg">
<rect x="0.5" width="50" height="50" rx="8" fill="#14213D"/>
<path d="M32.1663 38.3333H18.833C18.2863 38.3333 17.833 37.88 17.833 37.3333C17.833 36.7866 18.2863 36.3333 18.833 36.3333H32.1663C32.713 36.3333 33.1663 36.7866 33.1663 37.3333C33.1663 37.88 32.713 38.3333 32.1663 38.3333Z" fill="#FCA311"/>
<path d="M36.6336 16.36L31.3003 20.1733C30.5936 20.68 29.5803 20.3733 29.2736 19.56L26.7536 12.84C26.327 11.68 24.687 11.68 24.2603 12.84L21.727 19.5466C21.4203 20.3733 20.4203 20.68 19.7136 20.16L14.3803 16.3466C13.3136 15.6 11.9003 16.6533 12.3403 17.8933L17.887 33.4266C18.0736 33.96 18.5803 34.3066 19.1403 34.3066H31.847C32.407 34.3066 32.9136 33.9466 33.1003 33.4266L38.647 17.8933C39.1003 16.6533 37.687 15.6 36.6336 16.36ZM28.8336 28.6666H22.167C21.6203 28.6666 21.167 28.2133 21.167 27.6666C21.167 27.12 21.6203 26.6666 22.167 26.6666H28.8336C29.3803 26.6666 29.8336 27.12 29.8336 27.6666C29.8336 28.2133 29.3803 28.6666 28.8336 28.6666Z" fill="#FCA311"/>
</svg>
