<svg width="136" height="136" viewBox="0 0 136 136" fill="none" xmlns="http://www.w3.org/2000/svg">
<g filter="url(#filter0_d_110_1294)">
<rect x="28" y="18" width="80" height="80" rx="8" fill="#7D1CFA" shape-rendering="crispEdges"/>
<path d="M76.3337 74.6667H59.667C58.9837 74.6667 58.417 74.1 58.417 73.4167C58.417 72.7334 58.9837 72.1667 59.667 72.1667H76.3337C77.017 72.1667 77.5837 72.7334 77.5837 73.4167C77.5837 74.1 77.017 74.6667 76.3337 74.6667Z" fill="#FDBB4F"/>
<path d="M81.917 47.2L75.2504 51.9667C74.367 52.6 73.1004 52.2167 72.717 51.2L69.567 42.8C69.0337 41.35 66.9837 41.35 66.4504 42.8L63.2837 51.1834C62.9004 52.2167 61.6504 52.6 60.767 51.95L54.1004 47.1834C52.767 46.25 51.0004 47.5667 51.5504 49.1167L58.4837 68.5334C58.717 69.2 59.3504 69.6334 60.0504 69.6334H75.9337C76.6337 69.6334 77.267 69.1834 77.5004 68.5334L84.4337 49.1167C85.0004 47.5667 83.2337 46.25 81.917 47.2ZM72.167 62.5834H63.8337C63.1504 62.5834 62.5837 62.0167 62.5837 61.3334C62.5837 60.65 63.1504 60.0834 63.8337 60.0834H72.167C72.8504 60.0834 73.417 60.65 73.417 61.3334C73.417 62.0167 72.8504 62.5834 72.167 62.5834Z" fill="#FDBB4F"/>
</g>
<defs>
<filter id="filter0_d_110_1294" x="0" y="0" width="136" height="136" filterUnits="userSpaceOnUse" color-interpolation-filters="sRGB">
<feFlood flood-opacity="0" result="BackgroundImageFix"/>
<feColorMatrix in="SourceAlpha" type="matrix" values="0 0 0 0 0 0 0 0 0 0 0 0 0 0 0 0 0 0 127 0" result="hardAlpha"/>
<feMorphology radius="12" operator="dilate" in="SourceAlpha" result="effect1_dropShadow_110_1294"/>
<feOffset dy="10"/>
<feGaussianBlur stdDeviation="8"/>
<feComposite in2="hardAlpha" operator="out"/>
<feColorMatrix type="matrix" values="0 0 0 0 0.698094 0 0 0 0 0.81276 0 0 0 0 0.837931 0 0 0 0.2 0"/>
<feBlend mode="normal" in2="BackgroundImageFix" result="effect1_dropShadow_110_1294"/>
<feBlend mode="normal" in="SourceGraphic" in2="effect1_dropShadow_110_1294" result="shape"/>
</filter>
</defs>
</svg>
