<svg width="65" height="64" viewBox="0 0 65 64" fill="none" xmlns="http://www.w3.org/2000/svg">
<rect x="2" y="1.5" width="61" height="61" rx="6.5" fill="#50139F"/>
<rect x="2" y="1.5" width="61" height="61" rx="6.5" stroke="white" stroke-width="3"/>
<path d="M39.1663 45.3333H25.833C25.2863 45.3333 24.833 44.88 24.833 44.3333C24.833 43.7866 25.2863 43.3333 25.833 43.3333H39.1663C39.713 43.3333 40.1663 43.7866 40.1663 44.3333C40.1663 44.88 39.713 45.3333 39.1663 45.3333Z" fill="#FDBB4F"/>
<path d="M43.6336 23.36L38.3003 27.1733C37.5936 27.68 36.5803 27.3733 36.2736 26.56L33.7536 19.84C33.327 18.68 31.687 18.68 31.2603 19.84L28.727 26.5466C28.4203 27.3733 27.4203 27.68 26.7136 27.16L21.3803 23.3466C20.3136 22.6 18.9003 23.6533 19.3403 24.8933L24.887 40.4266C25.0736 40.96 25.5803 41.3066 26.1403 41.3066H38.847C39.407 41.3066 39.9136 40.9466 40.1003 40.4266L45.647 24.8933C46.1003 23.6533 44.687 22.6 43.6336 23.36ZM35.8336 35.6666H29.167C28.6203 35.6666 28.167 35.2133 28.167 34.6666C28.167 34.12 28.6203 33.6666 29.167 33.6666H35.8336C36.3803 33.6666 36.8336 34.12 36.8336 34.6666C36.8336 35.2133 36.3803 35.6666 35.8336 35.6666Z" fill="#FDBB4F"/>
</svg>
