<svg width="238" height="81" viewBox="0 0 238 81" fill="none" xmlns="http://www.w3.org/2000/svg">
<path fill-rule="evenodd" clip-rule="evenodd" d="M18.5312 42.8592L17.3016 39.8624C16.9866 38.6115 16.7165 37.645 16.3919 36.4107C15.7381 33.9256 11.9666 16.8685 10.4859 16.3473L1.64941 16.3497L1.65415 63.6025L8.29219 63.593L8.42486 30.1233L17.5693 63.5575L25.1455 63.5764L25.219 16.3829L18.6425 16.3521L18.5288 42.8545L18.5312 42.8592Z" fill="#3C3B3B"/>
<path fill-rule="evenodd" clip-rule="evenodd" d="M175.319 25.3876L178.69 48.6231L171.763 48.6136L175.319 25.3876ZM162.602 63.5717C164.108 63.593 165.416 63.6096 166.747 63.6286C169.095 63.6617 169.259 64.0834 169.766 62.3777C170.209 60.8781 170.493 57.0758 170.827 55.1593L179.692 55.0716L181.09 63.6001L188.502 63.593L181.111 16.3568L170.085 16.3497L162.604 63.5717H162.602Z" fill="#3C3B3B"/>
<path fill-rule="evenodd" clip-rule="evenodd" d="M120.56 23.2223C128.177 23.2317 127.416 24.0538 127.424 31.4026C127.431 38.4789 127.819 39.0143 120.482 39.0451L120.558 23.2223H120.56ZM112.92 17.8754L112.925 63.6049L120.352 63.5978L120.482 45.9011C135.402 46.0693 134.964 40.0993 134.964 29.6566C134.964 14.2792 126.388 16.3307 112.923 16.3497L112.918 17.8754H112.92Z" fill="#3C3B3B"/>
<path fill-rule="evenodd" clip-rule="evenodd" d="M68.3026 46.0266L61.2026 46.074C61.2026 48.3885 61.449 52.9039 60.9396 54.8181C60.3308 57.1161 57.4027 58.2556 55.0147 56.6968C52.6385 55.1427 53.5885 44.1811 53.5885 40.566C53.5885 37.1593 52.8304 25.9964 54.5172 23.9377C56.0428 22.078 59.2576 22.4334 60.4421 24.2102C61.5603 25.8874 61.2002 29.9645 61.2002 32.2436L68.3002 32.3833C68.3002 27.3776 68.3547 22.1041 65.6209 19.0314C63.3632 16.4942 58.3669 15.1273 53.7638 16.1981C43.9394 18.4842 46.055 30.3033 46.055 40.566C46.055 50.4022 44.0413 62.0697 54.3206 63.946C59.4472 64.8818 63.6688 63.4438 66.0876 60.3853C68.838 56.9076 68.305 51.1627 68.305 46.0266H68.3026Z" fill="#3C3B3B"/>
<path fill-rule="evenodd" clip-rule="evenodd" d="M216.782 63.6025L236.947 63.593L236.982 56.8128L224.318 56.8081L224.315 43.0961L234.317 43.0843L234.474 36.1975L224.318 36.1927L224.393 23.2223H237.063L237.07 16.3473L216.779 16.3568L216.782 63.6025Z" fill="#3C3B3B"/>
<path fill-rule="evenodd" clip-rule="evenodd" d="M74.4023 63.4367L94.6055 63.6025L94.6979 56.8081L81.9525 56.801L81.9548 43.089L91.9877 43.0866L92.1156 36.1927L81.9477 36.2046L81.9762 23.227L94.7074 23.2246L94.6529 16.3213L74.4995 16.3473L74.4023 63.4367Z" fill="#3C3B3B"/>
<path fill-rule="evenodd" clip-rule="evenodd" d="M188.95 23.227L196.638 23.2436L196.713 63.6049L204.055 63.5741L204.145 23.227L211.863 23.2246L211.87 16.3521L188.945 16.3473L188.95 23.227Z" fill="#3C3B3B"/>
<path fill-rule="evenodd" clip-rule="evenodd" d="M140.084 63.5978L159.631 63.593L159.716 56.801L147.618 56.7868V16.3592L140.072 16.3473L140.084 63.5978Z" fill="#3C3B3B"/>
<path fill-rule="evenodd" clip-rule="evenodd" d="M32.2 63.6025L39.627 63.593L39.7573 61.9513L39.7336 60.2029V57.5851V16.3521L35.7962 16.3473L32.1953 16.3568L32.2 63.6025Z" fill="#3C3B3B"/>
<path d="M110.085 5.61536V1.07126H108.293V0.0152346H113.173V1.07126H111.381V5.61536H110.085ZM117.71 0.0152346H119.006V5.61536H117.71V3.31931H115.166V5.61536H113.87V0.0152346H115.166V2.22328H117.71V0.0152346ZM121.619 4.57533H124.667V5.61536H120.331V0.0152346H124.563V1.05526H121.619V2.27128H124.219V3.27931H121.619V4.57533Z" fill="#3C3B3B"/>
<path d="M86.2999 77.8686H84.9079L83.8278 76.3086H83.7638H82.6358V77.8686H81.3398V72.2685H83.7638C85.2599 72.2685 86.1959 73.0445 86.1959 74.3005C86.1959 75.1405 85.7719 75.7565 85.0439 76.0686L86.2999 77.8686ZM84.8839 74.3005C84.8839 73.6845 84.4839 73.3245 83.6918 73.3245H82.6358V75.2765H83.6918C84.4839 75.2765 84.8839 74.9085 84.8839 74.3005ZM88.5108 76.8286H91.5588V77.8686H87.2227V72.2685H91.4548V73.3085H88.5108V74.5245H91.1108V75.5325H88.5108V76.8286ZM94.4301 77.9646C93.5421 77.9646 92.646 77.7006 92.15 77.3166L92.59 76.3406C93.0621 76.6846 93.7661 76.9246 94.4381 76.9246C95.2061 76.9246 95.5181 76.6686 95.5181 76.3246C95.5181 75.2765 92.262 75.9966 92.262 73.9165C92.262 72.9645 93.03 72.1725 94.6221 72.1725C95.3261 72.1725 96.0461 72.3405 96.5661 72.6685L96.1661 73.6525C95.6461 73.3565 95.1101 73.2125 94.6141 73.2125C93.8461 73.2125 93.5501 73.5005 93.5501 73.8525C93.5501 74.8845 96.8061 74.1725 96.8061 76.2286C96.8061 77.1646 96.0301 77.9646 94.4301 77.9646ZM98.7736 77.8686V73.3245H96.9816V72.2685H101.862V73.3245H100.07V77.8686H98.7736ZM106.462 77.8686L105.966 76.6686H103.366L102.87 77.8686H101.542L104.038 72.2685H105.318L107.822 77.8686H106.462ZM103.782 75.6845H105.558L104.67 73.5405L103.782 75.6845ZM110.774 77.9646C109.182 77.9646 108.238 77.0526 108.238 75.4045V72.2685H109.534V75.3565C109.534 76.4206 109.998 76.8606 110.782 76.8606C111.574 76.8606 112.03 76.4206 112.03 75.3565V72.2685H113.31V75.4045C113.31 77.0526 112.366 77.9646 110.774 77.9646ZM119.551 77.8686H118.159L117.079 76.3086H117.015H115.887V77.8686H114.591V72.2685H117.015C118.511 72.2685 119.447 73.0445 119.447 74.3005C119.447 75.1405 119.023 75.7565 118.295 76.0686L119.551 77.8686ZM118.135 74.3005C118.135 73.6845 117.735 73.3245 116.943 73.3245H115.887V75.2765H116.943C117.735 75.2765 118.135 74.9085 118.135 74.3005ZM124.658 77.8686L124.162 76.6686H121.561L121.065 77.8686H119.737L122.233 72.2685H123.514L126.018 77.8686H124.658ZM121.977 75.6845H123.754L122.866 73.5405L121.977 75.6845ZM130.455 72.2685H131.735V77.8686H130.671L127.879 74.4685V77.8686H126.599V72.2685H127.671L130.455 75.6685V72.2685ZM134.22 77.8686V73.3245H132.428V72.2685H137.308V73.3245H135.516V77.8686H134.22Z" fill="#3C3B3B"/>
<path d="M140.435 4.70587H237.07" stroke="#3C3B3B" stroke-width="1.33423" stroke-miterlimit="22.9256" stroke-linecap="round" stroke-linejoin="round"/>
<path d="M1.65137 4.70587H98.2867" stroke="#3C3B3B" stroke-width="1.33423" stroke-miterlimit="22.9256" stroke-linecap="round" stroke-linejoin="round"/>
<path d="M1.65137 76.9591H70.3653" stroke="#3C3B3B" stroke-width="1.33423" stroke-miterlimit="22.9256" stroke-linecap="round" stroke-linejoin="round"/>
<path d="M168.358 76.9591H237.07" stroke="#3C3B3B" stroke-width="1.33423" stroke-miterlimit="22.9256" stroke-linecap="round" stroke-linejoin="round"/>
</svg>
