<svg width="182" height="50" viewBox="0 0 182 50" fill="none" xmlns="http://www.w3.org/2000/svg">
<g id="3 1" clip-path="url(#clip0_109_367)">
<g id="Layer_x0020_1">
<g id="_1424155760960">
<path id="Vector" fill-rule="evenodd" clip-rule="evenodd" d="M0.180045 24.0794C-2.03621 42.2997 16.6833 54.7232 31.6669 48.274C31.3008 48.1188 26.6332 47.2979 24.3881 46.5725C18.7332 44.7467 11.3345 40.2698 8.7722 35.753C9.37784 36.0436 10.5093 37.0796 11.1504 37.5743C16.264 41.5188 25.3043 45.2924 31.5515 46.1243C30.7795 38.3419 25.6548 32.1102 21.5085 28.9866C15.4764 24.4387 9.54201 22.8836 0.180045 24.0794ZM38.9213 30.7703C39.4981 30.6682 39.172 30.6505 39.3051 30.93C38.3312 32.8845 33.4084 36.5272 31.0834 37.9848C31.3585 39.2027 32.1682 40.7778 32.6031 42.3086C33.0068 43.7373 33.1865 45.8115 33.5814 47.0361C34.1471 47.2802 34.4289 47.0539 35.2209 46.5636C42.5929 41.9824 47.2494 33.4347 46.118 24.1881C39.0522 21.8365 28.4013 25.619 24.6831 29.153C25.2133 30.1846 28.0752 32.4852 30.1627 36.3741C32.3879 35.7618 37.2286 31.773 38.9213 30.7703ZM26.7352 9.02256C26.8372 7.36314 28.6409 1.85466 28.1528 0.823071C26.0586 1.31335 22.5046 12.9226 27.5472 15.0169C27.5028 16.7184 26.6376 19.0967 26.2383 20.8559C25.8766 22.4466 25.0558 24.8092 24.9582 26.3267L28.2837 24.5386L29.8211 15.6159C32.6807 15.1056 33.8898 13.1822 34.6884 10.5977C35.2386 8.81624 35.6845 6.07198 35.6668 4.05539C35.6579 2.98165 35.76 2.67106 35.0057 2.34716C34.2802 3.58064 33.6946 8.60548 33.0268 10.5112L32.0418 10.3115C31.9331 9.46403 32.399 8.01093 32.5831 7.10579C32.8981 5.55952 33.6568 2.84854 33.384 1.71268C32.0529 1.46421 32.1194 2.0632 31.9309 3.1924L30.8904 8.08192C30.6308 9.27103 30.8638 9.6637 29.9254 9.99425C28.987 9.49731 29.444 9.06693 29.6569 7.97544C30.0407 6.00321 31.587 1.22905 30.3313 1.02052C29.3463 0.856348 28.9359 4.40591 28.7962 5.14466C28.5455 6.46244 28.3436 8.70975 27.4518 9.53502L26.733 9.02477L26.7352 9.02256ZM19.0859 14.6242C19.8069 13.7324 21.0759 13.3087 21.7703 10.8683C23.3742 5.22675 19.2345 -1.25786 14.1942 0.208553C11.2702 1.05823 9.67734 4.95609 10.5026 8.71641C11.3013 12.3591 13.1559 14.3158 16.8097 14.9858L18.478 24.7604C19.605 25.2174 20.712 26.0937 21.9566 26.3378L19.0837 14.6264L19.0859 14.6242Z" fill="white"/>
<g id="Group">
<path id="Vector_2" d="M68.0144 23.9707C74.4546 23.9707 79.1977 19.5426 79.1977 13.5061C79.1977 7.46964 74.4546 3.04156 68.0144 3.04156C61.5741 3.04156 56.8311 7.46964 56.8311 13.5061C56.8311 19.5426 61.5741 23.9707 68.0144 23.9707ZM68.0144 19.2564C64.9662 19.2564 62.5813 16.9847 62.5813 13.5061C62.5813 10.0275 64.9684 7.75583 68.0144 7.75583C71.0626 7.75583 73.4474 10.0275 73.4474 13.5061C73.4474 16.9847 71.0604 19.2564 68.0144 19.2564ZM94.6339 23.5691H100.728L96.3865 17.2442C98.8867 16.0374 100.324 13.8522 100.324 10.8905C100.324 6.29163 96.8745 3.44533 91.3838 3.44533H82.1838V23.5691H87.8764V18.2226H90.98L94.6317 23.5691H94.6339ZM94.5762 10.8905C94.5762 12.7296 93.3982 13.8234 91.0399 13.8234H87.8786V7.93109H91.0399C93.3982 7.93109 94.5762 9.02257 94.5762 10.8928V10.8905ZM118.522 23.5691H124.444L115.532 3.44533H109.926L101.043 23.5691H106.851L108.433 19.6602H116.943L118.525 23.5691H118.522ZM110.099 15.4628L112.686 9.02257L115.272 15.4628H110.099ZM139.565 23.5691H146.176L137.524 12.3569L145.745 3.44533H139.478L131.687 11.8112V3.44533H126.052V23.5691H131.687V18.5376L133.814 16.2659L139.565 23.5669V23.5691ZM147.671 23.5691H162.965V19.0567H153.364V3.44755H147.671V23.5713V23.5691ZM170.841 19.1699V15.4894H179.781V11.2344H170.841V7.84235H180.988V3.44311H165.206V23.5669H181.363V19.1677H170.841V19.1699Z" fill="white"/>
<path id="Vector_3" d="M67.4132 34.9499V32.7714H57.2015V46.7589H59.7994V41.4035H66.5524V39.205H59.7994V34.9499H67.4132ZM89.0744 46.9585C93.4093 46.9585 96.6083 43.9214 96.6083 39.7662C96.6083 35.6088 93.4115 32.5739 89.0744 32.5739C84.7395 32.5739 81.5404 35.631 81.5404 39.7662C81.5404 43.9015 84.7373 46.9585 89.0744 46.9585ZM89.0744 44.6802C86.2569 44.6802 84.1582 42.6214 84.1582 39.764C84.1582 36.9066 86.2569 34.8479 89.0744 34.8479C91.8918 34.8479 93.9905 36.9066 93.9905 39.764C93.9905 42.6214 91.8918 44.6802 89.0744 44.6802ZM118.669 46.9585C123.004 46.9585 126.203 43.9214 126.203 39.7662C126.203 35.6088 123.006 32.5739 118.669 32.5739C114.334 32.5739 111.135 35.631 111.135 39.7662C111.135 43.9015 114.332 46.9585 118.669 46.9585ZM118.669 44.6802C115.851 44.6802 113.753 42.6214 113.753 39.764C113.753 36.9066 115.851 34.8479 118.669 34.8479C121.486 34.8479 123.585 36.9066 123.585 39.764C123.585 42.6214 121.486 44.6802 118.669 44.6802ZM141.73 46.7589H147.844C152.379 46.7589 155.478 43.9614 155.478 39.7662C155.478 35.5689 152.381 32.7736 147.844 32.7736H141.73V46.7611V46.7589ZM144.328 44.5604V34.9699H147.724C150.841 34.9699 152.86 36.8689 152.86 39.7662C152.86 42.6636 150.841 44.5626 147.724 44.5626H144.328V44.5604ZM175.342 46.9585C179.178 46.9585 180.997 45.0395 180.997 42.7989C180.997 37.6698 172.704 39.6087 172.704 36.6315C172.704 35.5689 173.583 34.7303 175.741 34.7303C176.959 34.7303 178.339 35.0897 179.597 35.8284L180.416 33.8096C179.198 33.011 177.438 32.5717 175.759 32.5717C171.923 32.5717 170.124 34.4907 170.124 36.7513C170.124 41.9403 178.437 39.9659 178.437 42.983C178.437 44.0213 177.518 44.8022 175.34 44.8022C173.62 44.8022 171.843 44.1632 170.725 43.2648L169.827 45.2836C170.985 46.2819 173.163 46.963 175.342 46.963V46.9585Z" fill="white"/>
</g>
</g>
</g>
</g>
<defs>
<clipPath id="clip0_109_367">
<rect width="181.365" height="50" fill="white"/>
</clipPath>
</defs>
</svg>
